<mxfile modified="2022-05-02T01:23:18.705Z" host="app.diagrams.net" agent="5.0 (Windows NT 10.0; Win64; x64) AppleWebKit/537.36 (KHTML, like Gecko) Chrome/100.0.4896.127 Safari/537.36 Edg/100.0.1185.50" etag="Fj6tQZtIsA9jgzlwm8eB" compressed="false" version="17.5.0" type="google">
  <diagram id="3kUzbBqmShy26qbe1GDe" name="System Context/Intended Audience">
    <mxGraphModel grid="1" page="1" gridSize="10" guides="1" tooltips="1" connect="1" arrows="1" fold="1" pageScale="1" pageWidth="850" pageHeight="1100" math="0" shadow="0">
      <root>
        <mxCell id="cLofixu0Ww-VETsqNu3k-0" />
        <mxCell id="vsEjREzb1xnxja_uvn7d-0" value="About" parent="cLofixu0Ww-VETsqNu3k-0" />
        <mxCell id="sJR70yt2OH76I3SO6XL1-0" value="Title/Diagram" parent="cLofixu0Ww-VETsqNu3k-0" />
        <mxCell id="haqax_ZGSGHLxudBydZs-0" value="&lt;font style=&quot;font-size: 12px&quot;&gt;&lt;span style=&quot;font-size: 12px&quot;&gt;Diagram: &lt;/span&gt;System Context - Intended Audience&lt;/font&gt;" style="text;strokeColor=none;fillColor=none;html=1;fontSize=24;fontStyle=2;verticalAlign=middle;align=left;shadow=0;glass=0;comic=0;opacity=30;fontColor=#808080;" vertex="1" parent="sJR70yt2OH76I3SO6XL1-0">
          <mxGeometry x="120" y="280" width="520" height="40" as="geometry" />
        </mxCell>
        <mxCell id="aNRNmOsUTXuzEDu06KiC-11" value="Stakeholders" parent="cLofixu0Ww-VETsqNu3k-0" />
        <mxCell id="aNRNmOsUTXuzEDu06KiC-0" value="&lt;font style=&quot;font-size: 12px&quot;&gt;Solution&lt;br&gt;Architects&lt;br style=&quot;font-size: 12px&quot;&gt;&lt;/font&gt;" style="shape=image;html=1;verticalAlign=top;verticalLabelPosition=bottom;labelBackgroundColor=none;imageAspect=0;aspect=fixed;image=https://cdn0.iconfinder.com/data/icons/elasto-online-store/26/00-ELASTOFONT-STORE-READY_user-128.png;strokeColor=#f0f0f0;fillColor=none;fontSize=11;fontColor=#000000;align=center;rounded=0;arcSize=12;" vertex="1" parent="aNRNmOsUTXuzEDu06KiC-11">
          <mxGeometry x="210" y="210" width="20" height="20" as="geometry" />
        </mxCell>
        <mxCell id="aNRNmOsUTXuzEDu06KiC-1" value="&lt;font style=&quot;font-size: 12px&quot;&gt;Information&lt;br&gt;Architects&lt;br style=&quot;font-size: 12px&quot;&gt;&lt;/font&gt;" style="shape=image;html=1;verticalAlign=top;verticalLabelPosition=bottom;labelBackgroundColor=none;imageAspect=0;aspect=fixed;image=https://cdn0.iconfinder.com/data/icons/elasto-online-store/26/00-ELASTOFONT-STORE-READY_user-128.png;strokeColor=#f0f0f0;fillColor=none;fontSize=11;fontColor=#000000;align=center;rounded=0;arcSize=12;" vertex="1" parent="aNRNmOsUTXuzEDu06KiC-11">
          <mxGeometry x="290" y="210" width="20" height="20" as="geometry" />
        </mxCell>
        <mxCell id="aNRNmOsUTXuzEDu06KiC-3" value="&lt;font style=&quot;font-size: 12px&quot;&gt;Integration&lt;br&gt;Architects&lt;br style=&quot;font-size: 12px&quot;&gt;&lt;/font&gt;" style="shape=image;html=1;verticalAlign=top;verticalLabelPosition=bottom;labelBackgroundColor=none;imageAspect=0;aspect=fixed;image=https://cdn0.iconfinder.com/data/icons/elasto-online-store/26/00-ELASTOFONT-STORE-READY_user-128.png;strokeColor=#f0f0f0;fillColor=none;fontSize=11;fontColor=#000000;align=center;rounded=0;arcSize=12;" vertex="1" parent="aNRNmOsUTXuzEDu06KiC-11">
          <mxGeometry x="370" y="210" width="20" height="20" as="geometry" />
        </mxCell>
        <mxCell id="aNRNmOsUTXuzEDu06KiC-8" value="&lt;font style=&quot;font-size: 12px&quot;&gt;Data&lt;br&gt;Architects&lt;br style=&quot;font-size: 12px&quot;&gt;&lt;/font&gt;" style="shape=image;html=1;verticalAlign=top;verticalLabelPosition=bottom;labelBackgroundColor=none;imageAspect=0;aspect=fixed;image=https://cdn0.iconfinder.com/data/icons/elasto-online-store/26/00-ELASTOFONT-STORE-READY_user-128.png;strokeColor=#f0f0f0;fillColor=none;fontSize=11;fontColor=#000000;align=center;rounded=0;arcSize=12;" vertex="1" parent="aNRNmOsUTXuzEDu06KiC-11">
          <mxGeometry x="450" y="210" width="20" height="20" as="geometry" />
        </mxCell>
        <mxCell id="aNRNmOsUTXuzEDu06KiC-9" value="&lt;font style=&quot;font-size: 12px&quot;&gt;Delivery&lt;br&gt;Managers&lt;br style=&quot;font-size: 12px&quot;&gt;&lt;/font&gt;" style="shape=image;html=1;verticalAlign=top;verticalLabelPosition=bottom;labelBackgroundColor=none;imageAspect=0;aspect=fixed;image=https://cdn0.iconfinder.com/data/icons/elasto-online-store/26/00-ELASTOFONT-STORE-READY_user-128.png;strokeColor=#f0f0f0;fillColor=none;fontSize=11;fontColor=#000000;align=center;rounded=0;arcSize=12;" vertex="1" parent="aNRNmOsUTXuzEDu06KiC-11">
          <mxGeometry x="130" y="210" width="20" height="20" as="geometry" />
        </mxCell>
      </root>
    </mxGraphModel>
  </diagram>
</mxfile>
